<svg width="112" height="29" viewBox="0 0 112 29" fill="none" xmlns="http://www.w3.org/2000/svg">
<path d="M19.7622 6.524C19.7622 6.86 19.6542 7.148 19.4382 7.388C19.2462 7.628 19.0182 7.808 18.7542 7.928C18.1302 7.496 17.3982 7.088 16.5582 6.704C15.7182 6.32 14.6262 6.128 13.2822 6.128C12.1782 6.128 11.1582 6.32 10.2222 6.704C9.28622 7.088 8.47022 7.652 7.77422 8.396C7.07822 9.14 6.52622 10.076 6.11822 11.204C5.73422 12.332 5.54222 13.628 5.54222 15.092C5.54222 16.58 5.73422 17.876 6.11822 18.98C6.50222 20.084 7.03022 21.008 7.70222 21.752C8.39822 22.496 9.22622 23.06 10.1862 23.444C11.1462 23.804 12.2142 23.984 13.3902 23.984C14.6382 23.984 15.7182 23.816 16.6302 23.48C17.5662 23.12 18.3462 22.7 18.9702 22.22C19.2102 22.316 19.4382 22.496 19.6542 22.76C19.8702 23 19.9782 23.288 19.9782 23.624C19.9782 24.128 19.6902 24.584 19.1142 24.992C18.5622 25.376 17.8062 25.712 16.8462 26C15.8862 26.312 14.6622 26.468 13.1742 26.468C11.6622 26.468 10.2582 26.228 8.96222 25.748C7.66622 25.268 6.53822 24.56 5.57822 23.624C4.64222 22.664 3.89822 21.476 3.34622 20.06C2.79422 18.644 2.51822 16.988 2.51822 15.092C2.51822 13.196 2.79422 11.54 3.34622 10.124C3.92222 8.684 4.69022 7.484 5.65022 6.524C6.61022 5.564 7.72622 4.844 8.99822 4.364C10.2942 3.884 11.6502 3.644 13.0662 3.644C14.0502 3.644 14.9502 3.728 15.7662 3.896C16.6062 4.064 17.3142 4.292 17.8902 4.58C18.4902 4.844 18.9462 5.156 19.2582 5.516C19.5942 5.852 19.7622 6.188 19.7622 6.524ZM27.3903 25.928C27.2703 25.976 27.0903 26.024 26.8503 26.072C26.6103 26.144 26.3463 26.18 26.0583 26.18C25.0263 26.18 24.5103 25.748 24.5103 24.884V2.672C24.6303 2.624 24.8103 2.576 25.0503 2.528C25.3143 2.456 25.5903 2.42 25.8783 2.42C26.8863 2.42 27.3903 2.852 27.3903 3.716V10.196C27.9663 9.86 28.6383 9.56 29.4063 9.296C30.1983 9.032 31.0863 8.9 32.0703 8.9C33.0783 8.9 33.9903 9.032 34.8063 9.296C35.6463 9.56 36.3663 9.968 36.9663 10.52C37.5663 11.048 38.0343 11.732 38.3703 12.572C38.7063 13.388 38.8743 14.348 38.8743 15.452V25.928C38.7543 25.976 38.5623 26.024 38.2983 26.072C38.0583 26.144 37.8063 26.18 37.5423 26.18C36.5103 26.18 35.9943 25.748 35.9943 24.884V15.524C35.9943 14.084 35.5983 13.016 34.8063 12.32C34.0143 11.624 32.9703 11.276 31.6743 11.276C30.8343 11.276 30.0423 11.432 29.2983 11.744C28.5783 12.032 27.9423 12.392 27.3903 12.824V25.928ZM50.2064 24.128C51.2144 24.128 52.0424 24.032 52.6904 23.84C53.3624 23.624 53.8424 23.42 54.1304 23.228V18.008L49.6664 18.476C48.4184 18.596 47.4944 18.884 46.8944 19.34C46.2944 19.772 45.9944 20.42 45.9944 21.284C45.9944 22.196 46.3424 22.904 47.0384 23.408C47.7344 23.888 48.7904 24.128 50.2064 24.128ZM50.1704 8.9C52.2584 8.9 53.9144 9.368 55.1384 10.304C56.3624 11.24 56.9744 12.716 56.9744 14.732V23.264C56.9744 23.792 56.8664 24.2 56.6504 24.488C56.4584 24.752 56.1584 25.004 55.7504 25.244C55.1744 25.58 54.4064 25.868 53.4464 26.108C52.5104 26.372 51.4304 26.504 50.2064 26.504C47.9504 26.504 46.1984 26.06 44.9504 25.172C43.7264 24.284 43.1144 23 43.1144 21.32C43.1144 19.736 43.6304 18.548 44.6624 17.756C45.6944 16.94 47.1464 16.436 49.0184 16.244L54.1304 15.74V14.732C54.1304 13.532 53.7704 12.656 53.0504 12.104C52.3304 11.552 51.3584 11.276 50.1344 11.276C49.1264 11.276 48.1784 11.42 47.2904 11.708C46.4024 11.996 45.6104 12.32 44.9144 12.68C44.7224 12.512 44.5424 12.32 44.3744 12.104C44.2304 11.888 44.1584 11.648 44.1584 11.384C44.1584 11.048 44.2424 10.772 44.4104 10.556C44.5784 10.34 44.8424 10.136 45.2024 9.944C45.8504 9.608 46.5944 9.356 47.4344 9.188C48.2744 8.996 49.1864 8.9 50.1704 8.9ZM74.2654 9.044C74.6734 9.044 74.9974 9.152 75.2374 9.368C75.5014 9.584 75.6334 9.896 75.6334 10.304C75.6334 10.568 75.5374 11.036 75.3454 11.708C75.1534 12.356 74.9014 13.136 74.5894 14.048C74.2774 14.936 73.9174 15.92 73.5094 17C73.1254 18.08 72.7054 19.16 72.2494 20.24C71.8174 21.296 71.3734 22.316 70.9174 23.3C70.4854 24.284 70.0774 25.136 69.6934 25.856C69.5734 25.952 69.3574 26.036 69.0454 26.108C68.7574 26.18 68.4454 26.216 68.1094 26.216C67.2214 26.216 66.6454 25.964 66.3814 25.46C66.1654 25.052 65.8894 24.488 65.5534 23.768C65.2174 23.048 64.8574 22.232 64.4734 21.32C64.0894 20.408 63.6934 19.436 63.2854 18.404C62.8774 17.372 62.4814 16.352 62.0974 15.344C61.7134 14.312 61.3534 13.328 61.0174 12.392C60.6814 11.432 60.4054 10.58 60.1894 9.836C60.3574 9.596 60.5854 9.404 60.8734 9.26C61.1614 9.116 61.4494 9.044 61.7374 9.044C62.1694 9.044 62.4934 9.152 62.7094 9.368C62.9494 9.584 63.1654 9.944 63.3574 10.448L65.5894 16.892C65.7334 17.3 65.9134 17.804 66.1294 18.404C66.3454 18.98 66.5614 19.58 66.7774 20.204C67.0174 20.804 67.2454 21.392 67.4614 21.968C67.7014 22.544 67.8934 23.036 68.0374 23.444H68.1814C69.1414 21.02 70.0294 18.632 70.8454 16.28C71.6854 13.928 72.4174 11.612 73.0414 9.332C73.3534 9.14 73.7614 9.044 74.2654 9.044ZM81.4043 19.376C82.0523 22.52 84.1163 24.092 87.5963 24.092C88.6043 24.092 89.5163 23.924 90.3323 23.588C91.1483 23.252 91.7963 22.892 92.2763 22.508C92.8523 22.844 93.1403 23.3 93.1403 23.876C93.1403 24.212 92.9843 24.536 92.6723 24.848C92.3843 25.16 91.9763 25.436 91.4483 25.676C90.9443 25.916 90.3443 26.108 89.6483 26.252C88.9763 26.396 88.2443 26.468 87.4523 26.468C84.6683 26.468 82.4603 25.712 80.8283 24.2C79.2203 22.688 78.4163 20.48 78.4163 17.576C78.4163 16.208 78.6083 14.996 78.9923 13.94C79.4003 12.86 79.9523 11.948 80.6483 11.204C81.3683 10.46 82.2203 9.896 83.2043 9.512C84.1883 9.104 85.2563 8.9 86.4083 8.9C87.4883 8.9 88.4843 9.08 89.3963 9.44C90.3083 9.8 91.0883 10.316 91.7363 10.988C92.4083 11.636 92.9243 12.416 93.2843 13.328C93.6683 14.216 93.8603 15.2 93.8603 16.28C93.8603 16.808 93.7403 17.192 93.5003 17.432C93.2603 17.648 92.9243 17.78 92.4923 17.828L81.4043 19.376ZM86.3723 11.24C84.9083 11.24 83.6963 11.756 82.7363 12.788C81.7763 13.796 81.2723 15.248 81.2243 17.144L91.1243 15.776C91.0043 14.456 90.5363 13.376 89.7203 12.536C88.9283 11.672 87.8123 11.24 86.3723 11.24ZM109.967 21.572C109.967 23.108 109.403 24.308 108.275 25.172C107.147 26.036 105.515 26.468 103.379 26.468C102.467 26.468 101.627 26.384 100.859 26.216C100.091 26.072 99.4313 25.88 98.8793 25.64C98.3513 25.376 97.9313 25.088 97.6193 24.776C97.3313 24.44 97.1873 24.104 97.1873 23.768C97.1873 23.48 97.2593 23.204 97.4033 22.94C97.5713 22.676 97.8113 22.448 98.1233 22.256C98.7713 22.736 99.5273 23.168 100.391 23.552C101.255 23.912 102.239 24.092 103.343 24.092C105.839 24.092 107.087 23.252 107.087 21.572C107.087 20.204 106.259 19.316 104.603 18.908L101.615 18.116C100.151 17.732 99.0833 17.18 98.4113 16.46C97.7393 15.716 97.4033 14.768 97.4033 13.616C97.4033 12.992 97.5233 12.392 97.7633 11.816C98.0273 11.24 98.4233 10.736 98.9513 10.304C99.4793 9.872 100.127 9.536 100.895 9.296C101.687 9.032 102.611 8.9 103.667 8.9C105.347 8.9 106.703 9.152 107.735 9.656C108.767 10.136 109.283 10.7 109.283 11.348C109.283 11.66 109.199 11.936 109.031 12.176C108.887 12.416 108.683 12.596 108.419 12.716C107.987 12.428 107.375 12.116 106.583 11.78C105.791 11.444 104.855 11.276 103.775 11.276C102.695 11.276 101.831 11.48 101.183 11.888C100.559 12.296 100.247 12.872 100.247 13.616C100.247 14.168 100.427 14.636 100.787 15.02C101.147 15.404 101.747 15.692 102.587 15.884L105.071 16.496C106.703 16.904 107.927 17.516 108.743 18.332C109.559 19.124 109.967 20.204 109.967 21.572Z" fill="white"/>
<path d="M19.4382 7.388L17.9516 6.05007L17.9128 6.09325L17.8765 6.13861L19.4382 7.388ZM18.7542 7.928L17.6158 9.57238L18.5488 10.2183L19.5818 9.74873L18.7542 7.928ZM16.5582 6.704L15.7267 8.52295L15.7267 8.52295L16.5582 6.704ZM10.2222 6.704L10.9813 8.55434L10.9813 8.55434L10.2222 6.704ZM7.77422 8.396L9.23476 9.76231L9.23476 9.76231L7.77422 8.396ZM6.11822 11.204L4.23747 10.5237L4.23102 10.5415L4.22492 10.5595L6.11822 11.204ZM6.11822 18.98L8.00721 18.323L8.00721 18.323L6.11822 18.98ZM7.70222 21.752L6.21801 23.0926L6.22973 23.1055L6.24168 23.1183L7.70222 21.752ZM10.1862 23.444L9.44344 25.301L9.46362 25.309L9.48397 25.3167L10.1862 23.444ZM16.6302 23.48L17.3216 25.3567L17.3349 25.3518L17.3482 25.3467L16.6302 23.48ZM18.9702 22.22L19.713 20.363L18.6545 19.9396L17.7508 20.6348L18.9702 22.22ZM19.6542 22.76L18.1063 24.0265L18.1361 24.0629L18.1676 24.0979L19.6542 22.76ZM19.1142 24.992L20.2563 26.6338L20.2633 26.629L20.2703 26.624L19.1142 24.992ZM16.8462 26L16.2715 24.0843L16.2497 24.0909L16.228 24.0979L16.8462 26ZM8.96222 25.748L9.65685 23.8725L9.65685 23.8725L8.96222 25.748ZM5.57822 23.624L4.14622 25.0202L4.16389 25.0383L4.18202 25.056L5.57822 23.624ZM3.34622 20.06L5.20964 19.3336L5.20963 19.3336L3.34622 20.06ZM3.34622 10.124L1.48927 9.38122L1.486 9.38939L1.4828 9.39758L3.34622 10.124ZM5.65022 6.524L7.06443 7.93821L7.06443 7.93821L5.65022 6.524ZM8.99822 4.364L8.30358 2.48847L8.29211 2.4928L8.99822 4.364ZM15.7662 3.896L15.3629 5.85494L15.374 5.85716L15.7662 3.896ZM17.8902 4.58L16.9958 6.36885L17.0398 6.39083L17.0847 6.41063L17.8902 4.58ZM19.2582 5.516L17.7468 6.82586L17.7936 6.87977L17.844 6.93021L19.2582 5.516ZM17.7622 6.524C17.7622 6.47435 17.7709 6.39017 17.8086 6.28975C17.8467 6.18805 17.9008 6.10658 17.9516 6.05007L20.9248 8.72593C21.4858 8.10263 21.7622 7.33205 21.7622 6.524H17.7622ZM17.8765 6.13861C17.87 6.14676 17.8719 6.14271 17.8839 6.13323C17.8963 6.12345 17.9115 6.11413 17.9266 6.10726L19.5818 9.74873C20.1491 9.49087 20.6236 9.1078 21 8.63739L17.8765 6.13861ZM19.8926 6.28362C19.1535 5.77192 18.3148 5.30795 17.3897 4.88505L15.7267 8.52295C16.4816 8.86805 17.1069 9.22007 17.6158 9.57238L19.8926 6.28362ZM17.3897 4.88505C16.1979 4.34022 14.7929 4.128 13.2822 4.128V8.128C14.4595 8.128 15.2385 8.29977 15.7267 8.52295L17.3897 4.88505ZM13.2822 4.128C11.9417 4.128 10.6611 4.36216 9.46311 4.85366L10.9813 8.55434C11.6553 8.27784 12.4147 8.128 13.2822 8.128V4.128ZM9.46311 4.85366C8.25932 5.34752 7.20457 6.07734 6.31368 7.02969L9.23476 9.76231C9.73586 9.22665 10.3131 8.82847 10.9813 8.55434L9.46311 4.85366ZM6.31368 7.02968C5.40275 8.00344 4.7215 9.1855 4.23747 10.5237L7.99897 11.8843C8.33093 10.9665 8.75369 10.2766 9.23476 9.76231L6.31368 7.02968ZM4.22492 10.5595C3.75623 11.9362 3.54222 13.457 3.54222 15.092H7.54222C7.54222 13.799 7.7122 12.7278 8.01152 11.8485L4.22492 10.5595ZM3.54222 15.092C3.54222 16.7455 3.7548 18.2731 4.22923 19.637L8.00721 18.323C7.71364 17.4789 7.54222 16.4145 7.54222 15.092H3.54222ZM4.22923 19.637C4.68669 20.9523 5.33952 22.12 6.21801 23.0926L9.18642 20.4114C8.72092 19.896 8.31775 19.2157 8.00721 18.323L4.22923 19.637ZM6.24168 23.1183C7.14111 24.0798 8.21529 24.8097 9.44344 25.301L10.929 21.587C10.2372 21.3103 9.65532 20.9122 9.16276 20.3857L6.24168 23.1183ZM9.48397 25.3167C10.699 25.7723 12.0092 25.984 13.3902 25.984V21.984C12.4192 21.984 11.5935 21.8357 10.8885 21.5713L9.48397 25.3167ZM13.3902 25.984C14.8104 25.984 16.1354 25.7937 17.3216 25.3567L15.9388 21.6033C15.3011 21.8383 14.4661 21.984 13.3902 21.984V25.984ZM17.3482 25.3467C18.4174 24.9355 19.3778 24.4297 20.1896 23.8052L17.7508 20.6348C17.3146 20.9703 16.7151 21.3045 15.9123 21.6133L17.3482 25.3467ZM18.2274 24.077C18.1485 24.0454 18.1004 24.0113 18.0819 23.9968C18.0648 23.9832 18.0745 23.9876 18.1063 24.0265L21.2021 21.4935C20.8382 21.0487 20.3515 20.6184 19.713 20.363L18.2274 24.077ZM18.1676 24.0979C18.1168 24.0414 18.0627 23.9599 18.0246 23.8582C17.9869 23.7578 17.9782 23.6736 17.9782 23.624H21.9782C21.9782 22.8159 21.7018 22.0454 21.1408 21.4221L18.1676 24.0979ZM17.9782 23.624C17.9782 23.5565 17.9883 23.4858 18.0086 23.4183C18.0285 23.3517 18.0537 23.3039 18.0712 23.276C18.1028 23.226 18.0954 23.2628 17.9582 23.36L20.2703 26.624C21.1475 26.0027 21.9782 25.0133 21.9782 23.624H17.9782ZM17.9721 23.3502C17.6563 23.5698 17.1183 23.8303 16.2715 24.0843L17.4209 27.9157C18.4941 27.5937 19.4681 27.1822 20.2563 26.6338L17.9721 23.3502ZM16.228 24.0979C15.5381 24.3222 14.5421 24.468 13.1742 24.468V28.468C14.7824 28.468 16.2343 28.3018 17.4644 27.9021L16.228 24.0979ZM13.1742 24.468C11.877 24.468 10.7105 24.2628 9.65685 23.8725L8.26759 27.6235C9.80591 28.1932 11.4474 28.468 13.1742 28.468V24.468ZM9.65685 23.8725C8.61487 23.4866 7.72792 22.9267 6.97442 22.192L4.18202 25.056C5.34852 26.1933 6.71757 27.0494 8.26759 27.6235L9.65685 23.8725ZM7.01022 22.2278C6.28489 21.4839 5.67717 20.5329 5.20964 19.3336L1.4828 20.7864C2.11927 22.4191 2.99955 23.8441 4.14622 25.0202L7.01022 22.2278ZM5.20963 19.3336C4.76718 18.1986 4.51822 16.7988 4.51822 15.092H0.518219C0.518219 17.1772 0.821257 19.0894 1.4828 20.7864L5.20963 19.3336ZM4.51822 15.092C4.51822 13.3852 4.76718 11.9854 5.20963 10.8504L1.4828 9.39758C0.821257 11.0946 0.518219 13.0067 0.518219 15.092H4.51822ZM5.20317 10.8668C5.69283 9.64264 6.32134 8.68131 7.06443 7.93821L4.23601 5.10979C3.0591 6.28669 2.15161 7.72535 1.48927 9.38122L5.20317 10.8668ZM7.06443 7.93821C7.82325 7.1794 8.69776 6.61504 9.70433 6.2352L8.29211 2.4928C6.75468 3.07296 5.39719 3.9486 4.23601 5.10979L7.06443 7.93821ZM9.69285 6.2395C10.761 5.84388 11.8814 5.644 13.0662 5.644V1.644C11.4191 1.644 9.82742 1.92412 8.30359 2.4885L9.69285 6.2395ZM13.0662 5.644C13.9384 5.644 14.7009 5.71861 15.3629 5.85491L16.1695 1.93709C15.1995 1.73738 14.1621 1.644 13.0662 1.644V5.644ZM15.374 5.85716C16.0933 6.00102 16.6212 6.18156 16.9958 6.36885L18.7846 2.79115C18.0072 2.40243 17.1192 2.12698 16.1585 1.93484L15.374 5.85716ZM17.0847 6.41063C17.5098 6.59764 17.6873 6.75716 17.7468 6.82586L20.7696 4.20614C20.2051 3.55483 19.4707 3.09036 18.6957 2.74937L17.0847 6.41063ZM17.844 6.93021C17.8984 6.98458 17.8811 6.98187 17.8474 6.91443C17.8091 6.83785 17.7622 6.70153 17.7622 6.524H21.7622C21.7622 5.47049 21.2264 4.65578 20.6724 4.10179L17.844 6.93021ZM27.3903 25.928L28.1331 27.785L29.3903 27.2821V25.928H27.3903ZM26.8503 26.072L26.458 24.1108L26.3657 24.1293L26.2756 24.1563L26.8503 26.072ZM24.5103 2.672L23.7675 0.815051L22.5103 1.31794V2.672H24.5103ZM25.0503 2.528L25.4425 4.48916L25.5101 4.47565L25.5765 4.45753L25.0503 2.528ZM27.3903 10.196H25.3903V13.6781L28.398 11.9236L27.3903 10.196ZM29.4063 9.296L28.7738 7.39863L28.765 7.40159L28.7561 7.40463L29.4063 9.296ZM34.8063 9.296L34.1906 11.1989L34.1986 11.2015L34.2066 11.204L34.8063 9.296ZM36.9663 10.52L35.6122 11.9919L35.6284 12.0068L35.645 12.0214L36.9663 10.52ZM38.3703 12.572L36.5133 13.3148L36.5171 13.3242L36.5209 13.3335L38.3703 12.572ZM38.8743 25.928L39.6171 27.785L40.8743 27.2821V25.928H38.8743ZM38.2983 26.072L37.9405 24.1043L37.8306 24.1242L37.7236 24.1563L38.2983 26.072ZM34.8063 12.32L36.1265 10.8177L36.1265 10.8177L34.8063 12.32ZM29.2983 11.744L30.0411 13.601L30.0565 13.5948L30.0717 13.5884L29.2983 11.744ZM27.3903 12.824L26.1577 11.249L25.3903 11.8495V12.824H27.3903ZM26.6475 24.071C26.6695 24.0622 26.6813 24.0586 26.6795 24.0592C26.6782 24.0596 26.6688 24.0625 26.65 24.0675C26.611 24.0779 26.5487 24.0927 26.458 24.1108L27.2425 28.0332C27.5164 27.9784 27.84 27.9022 28.1331 27.785L26.6475 24.071ZM26.2756 24.1563C26.2474 24.1648 26.1801 24.18 26.0583 24.18V28.18C26.5125 28.18 26.9731 28.1232 27.425 27.9877L26.2756 24.1563ZM26.0583 24.18C25.7725 24.18 25.9307 24.1128 26.1812 24.3225C26.3159 24.4353 26.4116 24.5768 26.4652 24.7112C26.5138 24.8334 26.5103 24.9051 26.5103 24.884H22.5103C22.5103 25.7268 22.7789 26.6908 23.6134 27.3895C24.3799 28.0312 25.3121 28.18 26.0583 28.18V24.18ZM26.5103 24.884V2.672H22.5103V24.884H26.5103ZM25.2531 4.52895C25.231 4.53777 25.2192 4.54144 25.2211 4.54085C25.2224 4.54043 25.2317 4.53751 25.2506 4.53247C25.2896 4.52208 25.3519 4.50729 25.4425 4.48916L24.6581 0.566837C24.3842 0.62161 24.0605 0.69784 23.7675 0.815051L25.2531 4.52895ZM25.5765 4.45753C25.6602 4.43469 25.7587 4.42 25.8783 4.42V0.419999C25.4218 0.419999 24.9683 0.477306 24.524 0.598473L25.5765 4.45753ZM25.8783 4.42C26.143 4.42 25.9683 4.48329 25.7107 4.26251C25.5748 4.14602 25.4822 4.00364 25.4318 3.87389C25.386 3.75624 25.3903 3.68993 25.3903 3.716H29.3903C29.3903 2.88828 29.1344 1.92884 28.3139 1.22549C27.5523 0.572709 26.6216 0.419999 25.8783 0.419999V4.42ZM25.3903 3.716V10.196H29.3903V3.716H25.3903ZM28.398 11.9236C28.8391 11.6662 29.3869 11.4175 30.0564 11.1874L28.7561 7.40463C27.8896 7.70248 27.0934 8.05376 26.3825 8.46844L28.398 11.9236ZM30.0387 11.1934C30.5941 11.0082 31.2638 10.9 32.0703 10.9V6.9C30.9087 6.9 29.8025 7.05575 28.7738 7.39863L30.0387 11.1934ZM32.0703 10.9C32.905 10.9 33.6049 11.0094 34.1906 11.1989L35.4219 7.39311C34.3757 7.05463 33.2516 6.9 32.0703 6.9V10.9ZM34.2066 11.204C34.7889 11.387 35.2455 11.6545 35.6122 11.9919L38.3204 9.04814C37.4871 8.2815 36.5036 7.733 35.4059 7.38801L34.2066 11.204ZM35.645 12.0214C35.9799 12.3162 36.2784 12.7274 36.5133 13.3148L40.2272 11.8292C39.7902 10.7366 39.1526 9.77985 38.2875 9.01857L35.645 12.0214ZM36.5209 13.3335C36.7359 13.8556 36.8743 14.5459 36.8743 15.452H40.8743C40.8743 14.1501 40.6767 12.9204 40.2196 11.8105L36.5209 13.3335ZM36.8743 15.452V25.928H40.8743V15.452H36.8743ZM38.1315 24.071C38.1634 24.0583 38.1822 24.0526 38.1826 24.0524C38.184 24.052 38.1756 24.0546 38.1552 24.0597C38.1131 24.0702 38.0437 24.0855 37.9405 24.1043L38.6561 28.0397C38.9427 27.9876 39.3005 27.9116 39.6171 27.785L38.1315 24.071ZM37.7236 24.1563C37.6798 24.1695 37.6221 24.18 37.5423 24.18V28.18C37.9905 28.18 38.4368 28.1185 38.873 27.9877L37.7236 24.1563ZM37.5423 24.18C37.2565 24.18 37.4147 24.1128 37.6652 24.3225C37.7999 24.4353 37.8956 24.5768 37.9492 24.7112C37.9978 24.8334 37.9943 24.9051 37.9943 24.884H33.9943C33.9943 25.7268 34.2629 26.6908 35.0974 27.3895C35.8639 28.0312 36.7961 28.18 37.5423 28.18V24.18ZM37.9943 24.884V15.524H33.9943V24.884H37.9943ZM37.9943 15.524C37.9943 13.7288 37.4922 12.0178 36.1265 10.8177L33.4861 13.8223C33.7044 14.0142 33.9943 14.4392 33.9943 15.524H37.9943ZM36.1265 10.8177C34.8909 9.7318 33.3402 9.276 31.6743 9.276V13.276C32.6004 13.276 33.1377 13.5162 33.4861 13.8223L36.1265 10.8177ZM31.6743 9.276C30.5798 9.276 29.5238 9.48067 28.5248 9.89961L30.0717 13.5884C30.5607 13.3833 31.0887 13.276 31.6743 13.276V9.276ZM28.5555 9.88705C27.6782 10.238 26.8737 10.6886 26.1577 11.249L28.6229 14.399C29.0109 14.0954 29.4784 13.826 30.0411 13.601L28.5555 9.88705ZM25.3903 12.824V25.928H29.3903V12.824H25.3903ZM52.6904 23.84L53.2586 25.7576L53.2806 25.7511L53.3024 25.7441L52.6904 23.84ZM54.1304 23.228L55.2398 24.8921L56.1304 24.2984V23.228H54.1304ZM54.1304 18.008H56.1304V15.7874L53.9219 16.0189L54.1304 18.008ZM49.6664 18.476L49.8578 20.4668L49.8664 20.466L49.8749 20.4651L49.6664 18.476ZM46.8944 19.34L48.063 20.9631L48.084 20.948L48.1046 20.9323L46.8944 19.34ZM47.0384 23.408L45.8654 25.0279L45.884 25.0414L45.9029 25.0544L47.0384 23.408ZM55.1384 10.304L53.9235 11.8927L53.9235 11.8927L55.1384 10.304ZM56.6504 24.488L55.0504 23.288L55.0416 23.2998L55.0329 23.3117L56.6504 24.488ZM55.7504 25.244L56.7582 26.9716L56.7644 26.9679L55.7504 25.244ZM53.4464 26.108L52.9613 24.1677L52.9323 24.175L52.9035 24.1831L53.4464 26.108ZM44.9504 25.172L43.776 26.7908L43.7834 26.7962L43.7909 26.8016L44.9504 25.172ZM44.6624 17.756L45.88 19.3426L45.8915 19.3338L45.9029 19.3248L44.6624 17.756ZM49.0184 16.244L48.8222 14.2536L48.8143 14.2544L49.0184 16.244ZM54.1304 15.74L54.3266 17.7303L56.1304 17.5525V15.74H54.1304ZM44.9144 12.68L43.5974 14.1852L44.6229 15.0825L45.8333 14.4564L44.9144 12.68ZM44.3744 12.104L42.7103 13.2134L42.7508 13.2742L42.7957 13.3319L44.3744 12.104ZM45.2024 9.944L44.2818 8.16849L44.2715 8.17383L44.2612 8.17929L45.2024 9.944ZM47.4344 9.188L47.8266 11.1492L47.8534 11.1438L47.8801 11.1377L47.4344 9.188ZM50.2064 26.128C51.3221 26.128 52.3595 26.024 53.2586 25.7576L52.1222 21.9224C51.7253 22.04 51.1067 22.128 50.2064 22.128V26.128ZM53.3024 25.7441C54.0076 25.5174 54.7095 25.2457 55.2398 24.8921L53.021 21.5639C53.0241 21.5618 53.007 21.5734 52.9618 21.5966C52.9177 21.6194 52.8556 21.6489 52.7721 21.6843C52.6034 21.756 52.3754 21.8405 52.0784 21.9359L53.3024 25.7441ZM56.1304 23.228V18.008H52.1304V23.228H56.1304ZM53.9219 16.0189L49.4579 16.4869L49.8749 20.4651L54.3389 19.9971L53.9219 16.0189ZM49.475 16.4852C48.0762 16.6197 46.7167 16.963 45.6842 17.7477L48.1046 20.9323C48.2721 20.805 48.7606 20.5723 49.8578 20.4668L49.475 16.4852ZM45.7258 17.7169C44.5108 18.5917 43.9944 19.9006 43.9944 21.284H47.9944C47.9944 21.0824 48.0291 21.0015 48.0343 20.9902C48.0361 20.9864 48.0371 20.9848 48.0371 20.9848C48.0372 20.9847 48.0372 20.9848 48.0371 20.9849C48.037 20.985 48.037 20.985 48.0371 20.9849C48.0372 20.9847 48.0386 20.9831 48.0421 20.9798C48.0457 20.9765 48.0523 20.9708 48.063 20.9631L45.7258 17.7169ZM43.9944 21.284C43.9944 22.7912 44.6137 24.1215 45.8654 25.0279L48.2114 21.7881C48.0711 21.6865 47.9944 21.6008 47.9944 21.284H43.9944ZM45.9029 25.0544C47.0902 25.8732 48.6311 26.128 50.2064 26.128V22.128C48.9497 22.128 48.3786 21.9028 48.1739 21.7616L45.9029 25.0544ZM50.1704 10.9C51.9736 10.9 53.1537 11.3041 53.9235 11.8927L56.3533 8.71528C54.6751 7.43192 52.5432 6.9 50.1704 6.9V10.9ZM53.9235 11.8927C54.5074 12.3392 54.9744 13.1299 54.9744 14.732H58.9744C58.9744 12.3021 58.2174 10.1408 56.3533 8.71528L53.9235 11.8927ZM54.9744 14.732V23.264H58.9744V14.732H54.9744ZM54.9744 23.264C54.9744 23.3284 54.9711 23.3758 54.9673 23.4083C54.9636 23.4407 54.9598 23.4549 54.96 23.4542C54.9607 23.4517 54.9798 23.3821 55.0504 23.288L58.2504 25.688C58.8222 24.9257 58.9744 24.0311 58.9744 23.264H54.9744ZM55.0329 23.3117C55.0493 23.2892 55.0446 23.302 54.995 23.3436C54.9457 23.385 54.8634 23.4454 54.7364 23.5201L56.7644 26.9679C57.3111 26.6463 57.8589 26.2267 58.2679 25.6643L55.0329 23.3117ZM54.7427 23.5164C54.3882 23.7232 53.8175 23.9537 52.9613 24.1677L53.9315 28.0483C54.9953 27.7823 55.9606 27.4368 56.7581 26.9716L54.7427 23.5164ZM52.9035 24.1831C52.1828 24.3864 51.2919 24.504 50.2064 24.504V28.504C51.5689 28.504 52.838 28.3576 53.9893 28.0329L52.9035 24.1831ZM50.2064 24.504C48.179 24.504 46.8935 24.1 46.1099 23.5424L43.7909 26.8016C45.5033 28.02 47.7218 28.504 50.2064 28.504V24.504ZM46.1249 23.5532C45.4827 23.0873 45.1144 22.4416 45.1144 21.32H41.1144C41.1144 23.5584 41.9701 25.4807 43.776 26.7908L46.1249 23.5532ZM45.1144 21.32C45.1144 20.207 45.4497 19.6729 45.88 19.3426L43.4448 16.1694C41.8111 17.4231 41.1144 19.265 41.1144 21.32H45.1144ZM45.9029 19.3248C46.5342 18.8257 47.574 18.4026 49.2225 18.2336L48.8143 14.2544C46.7188 14.4694 44.8546 15.0543 43.4219 16.1872L45.9029 19.3248ZM49.2146 18.2343L54.3266 17.7303L53.9342 13.7496L48.8222 14.2536L49.2146 18.2343ZM56.1304 15.74V14.732H52.1304V15.74H56.1304ZM56.1304 14.732C56.1304 13.1274 55.6311 11.5624 54.2673 10.5168L51.8335 13.6912C51.9097 13.7496 52.1304 13.9366 52.1304 14.732H56.1304ZM54.2673 10.5168C53.0939 9.61723 51.6461 9.276 50.1344 9.276V13.276C51.0707 13.276 51.5669 13.4868 51.8335 13.6912L54.2673 10.5168ZM50.1344 9.276C48.9336 9.276 47.776 9.44797 46.6734 9.80555L47.9074 13.6104C48.5809 13.392 49.3192 13.276 50.1344 13.276V9.276ZM46.6734 9.80555C45.7005 10.1211 44.8048 10.485 43.9956 10.9036L45.8333 14.4564C46.416 14.155 47.1043 13.8709 47.9074 13.6104L46.6734 9.80555ZM46.2314 11.1748C46.1419 11.0965 46.0485 10.9988 45.9531 10.8761L42.7957 13.3319C43.0363 13.6412 43.3029 13.9275 43.5974 14.1852L46.2314 11.1748ZM46.0385 10.9946C46.0724 11.0454 46.1051 11.1108 46.1281 11.1873C46.1509 11.2635 46.1584 11.3318 46.1584 11.384H42.1584C42.1584 12.0357 42.3434 12.663 42.7103 13.2134L46.0385 10.9946ZM46.1584 11.384C46.1584 11.3816 46.1588 11.4285 46.1348 11.5073C46.1095 11.5903 46.0632 11.6886 45.9891 11.7839L42.8317 9.32812C42.333 9.96925 42.1584 10.7072 42.1584 11.384H46.1584ZM45.9891 11.7839C45.9503 11.8338 45.9304 11.8443 45.9573 11.8236C45.9837 11.8032 46.0415 11.7632 46.1436 11.7087L44.2612 8.17929C43.7643 8.44435 43.2355 8.80899 42.8317 9.32812L45.9891 11.7839ZM46.123 11.7195C46.5786 11.4833 47.1396 11.2866 47.8266 11.1492L47.0422 7.22684C46.0492 7.42543 45.1222 7.73269 44.2818 8.16849L46.123 11.7195ZM47.8801 11.1377C48.5549 10.9835 49.3156 10.9 50.1704 10.9V6.9C49.0572 6.9 47.9939 7.00854 46.9888 7.23828L47.8801 11.1377ZM75.2374 9.368L73.8994 10.8546L73.9345 10.8861L73.9709 10.9159L75.2374 9.368ZM75.3454 11.708L77.263 12.2762L77.2657 12.2668L77.2684 12.2574L75.3454 11.708ZM74.5894 14.048L76.4763 14.711L76.479 14.7032L76.4817 14.6954L74.5894 14.048ZM73.5094 17L71.6384 16.2932L71.6315 16.3115L71.6249 16.33L73.5094 17ZM72.2494 20.24L70.4069 19.4621L70.4025 19.4724L70.3983 19.4827L72.2494 20.24ZM70.9174 23.3L69.1028 22.4591L69.0942 22.4775L69.0861 22.496L70.9174 23.3ZM69.6934 25.856L70.9428 27.4177L71.2643 27.1605L71.4581 26.7972L69.6934 25.856ZM69.0454 26.108L68.5957 24.1592L68.5779 24.1633L68.5603 24.1677L69.0454 26.108ZM66.3814 25.46L68.1531 24.532L68.149 24.5242L66.3814 25.46ZM65.5534 23.768L63.741 24.6138L63.741 24.6138L65.5534 23.768ZM62.0974 15.344L60.2229 16.0415L60.2256 16.0487L60.2284 16.056L62.0974 15.344ZM61.0174 12.392L59.1297 13.0527L59.1323 13.0602L59.135 13.0677L61.0174 12.392ZM60.1894 9.836L58.5509 8.68907L58.0016 9.47376L58.2687 10.3936L60.1894 9.836ZM60.8734 9.26L59.979 7.47114L59.9789 7.47115L60.8734 9.26ZM62.7094 9.368L61.2952 10.7822L61.3324 10.8194L61.3714 10.8546L62.7094 9.368ZM63.3574 10.448L65.2472 9.79342L65.2372 9.76455L65.2264 9.73601L63.3574 10.448ZM65.5894 16.892L63.6995 17.5466L63.7034 17.5576L65.5894 16.892ZM66.1294 18.404L64.2476 19.0814L64.2521 19.0939L64.2567 19.1062L66.1294 18.404ZM66.7774 20.204L64.8874 20.8582L64.9029 20.9029L64.9204 20.9468L66.7774 20.204ZM67.4614 21.968L65.5887 22.6702L65.6014 22.704L65.6152 22.7372L67.4614 21.968ZM68.0374 23.444L66.1514 24.1096L66.6223 25.444H68.0374V23.444ZM68.1814 23.444V25.444H69.5404L70.0409 24.1804L68.1814 23.444ZM70.8454 16.28L68.9619 15.6073L68.9588 15.6159L68.9559 15.6245L70.8454 16.28ZM73.0414 9.332L71.9932 7.62868L71.3207 8.04249L71.1123 8.80405L73.0414 9.332ZM74.2654 11.044C74.295 11.044 74.2591 11.0481 74.1819 11.0224C74.0983 10.9945 73.9955 10.9411 73.8994 10.8546L76.5753 7.88141C75.8788 7.25455 75.0325 7.044 74.2654 7.044V11.044ZM73.9709 10.9159C73.8533 10.8197 73.7539 10.6886 73.6924 10.5433C73.6351 10.4078 73.6334 10.3142 73.6334 10.304H77.6334C77.6334 9.42647 77.3244 8.49142 76.5039 7.82008L73.9709 10.9159ZM73.6334 10.304C73.6334 10.2339 73.6411 10.2615 73.6022 10.4511C73.5678 10.6186 73.5101 10.8512 73.4223 11.1586L77.2684 12.2574C77.4542 11.6071 77.6334 10.8855 77.6334 10.304H73.6334ZM73.4278 11.1398C73.2462 11.7527 73.0035 12.5048 72.697 13.4006L76.4817 14.6954C76.7992 13.7672 77.0606 12.9593 77.263 12.2762L73.4278 11.1398ZM72.7025 13.385C72.3966 14.2555 72.0421 15.2246 71.6384 16.2932L75.3803 17.7068C75.7926 16.6154 76.1581 15.6165 76.4763 14.711L72.7025 13.385ZM71.6249 16.33C71.2542 17.3728 70.8482 18.4168 70.4069 19.4621L74.0919 21.0179C74.5625 19.9032 74.9966 18.7872 75.3938 17.67L71.6249 16.33ZM70.3983 19.4827C69.9772 20.512 69.5453 21.5041 69.1028 22.4591L72.732 24.1409C73.2014 23.1279 73.6575 22.08 74.1005 20.9973L70.3983 19.4827ZM69.0861 22.496C68.6685 23.4471 68.2826 24.2511 67.9287 24.9148L71.4581 26.7972C71.8721 26.0209 72.3022 25.1209 72.7487 24.104L69.0861 22.496ZM68.444 24.2943C68.5287 24.2265 68.5998 24.1848 68.6409 24.1628C68.6832 24.1401 68.7107 24.1292 68.7165 24.127C68.7246 24.1239 68.6906 24.1373 68.5957 24.1592L69.4951 28.0568C69.8493 27.975 70.4481 27.8135 70.9428 27.4177L68.444 24.2943ZM68.5603 24.1677C68.4502 24.1952 68.3029 24.216 68.1094 24.216V28.216C68.5878 28.216 69.0646 28.1648 69.5304 28.0483L68.5603 24.1677ZM68.1094 24.216C67.9798 24.216 67.8929 24.2066 67.8411 24.1977C67.7894 24.1888 67.7852 24.1825 67.813 24.1947C67.8432 24.2079 67.9049 24.2403 67.9758 24.3042C68.0487 24.3697 68.1096 24.449 68.153 24.532L64.6097 26.388C65.3882 27.8742 66.9314 28.216 68.1094 28.216V24.216ZM68.149 24.5242C67.9558 24.1595 67.6961 23.6301 67.3657 22.9222L63.741 24.6138C64.0827 25.3459 64.3749 25.9445 64.6138 26.3958L68.149 24.5242ZM67.3657 22.9222C67.0427 22.23 66.6931 21.4379 66.3166 20.5439L62.6301 22.0961C63.0217 23.0261 63.392 23.866 63.741 24.6138L67.3657 22.9222ZM66.3166 20.5439C65.939 19.6469 65.5485 18.6886 65.1453 17.6687L61.4255 19.1393C61.8382 20.1834 62.2398 21.1691 62.6301 22.0961L66.3166 20.5439ZM65.1453 17.6687C64.7403 16.6442 64.3473 15.632 63.9664 14.632L60.2284 16.056C60.6155 17.072 61.0145 18.0998 61.4255 19.1393L65.1453 17.6687ZM63.9718 14.6465C63.5902 13.621 63.2329 12.6443 62.8998 11.7163L59.135 13.0677C59.4739 14.0117 59.8365 15.003 60.2229 16.0415L63.9718 14.6465ZM62.9051 11.7313C62.5776 10.7955 62.3135 9.97898 62.1101 9.27838L58.2687 10.3936C58.4973 11.181 58.7852 12.0685 59.1297 13.0527L62.9051 11.7313ZM61.8278 10.9829C61.8105 11.0077 61.7912 11.0279 61.7746 11.0418C61.7588 11.0552 61.7536 11.0559 61.7678 11.0489L59.9789 7.47115C59.4235 7.74885 58.9281 8.15022 58.5509 8.68907L61.8278 10.9829ZM61.7678 11.0489C61.7922 11.0367 61.7994 11.0361 61.7904 11.0383C61.7862 11.0394 61.7791 11.0409 61.7694 11.0421C61.7598 11.0433 61.7489 11.044 61.7374 11.044V7.044C61.1038 7.044 60.5115 7.20486 59.979 7.47114L61.7678 11.0489ZM61.7374 11.044C61.7927 11.044 61.7596 11.0516 61.6719 11.0224C61.5745 10.9899 61.4315 10.9185 61.2952 10.7822L64.1236 7.95379C63.4002 7.23043 62.4777 7.044 61.7374 7.044V11.044ZM61.3714 10.8546C61.3071 10.7967 61.3017 10.7712 61.3364 10.829C61.3696 10.8843 61.4231 10.9887 61.4884 11.16L65.2264 9.73601C64.9878 9.10994 64.6312 8.40694 64.0473 7.88141L61.3714 10.8546ZM61.4675 11.1026L63.6995 17.5466L67.4792 16.2374L65.2472 9.79342L61.4675 11.1026ZM63.7034 17.5576C63.8493 17.9709 64.0308 18.4792 64.2476 19.0814L68.0112 17.7266C67.796 17.1288 67.6175 16.6291 67.4754 16.2264L63.7034 17.5576ZM64.2567 19.1062C64.4663 19.6652 64.6766 20.2491 64.8874 20.8582L68.6673 19.5498C68.4462 18.9109 68.2244 18.2948 68.002 17.7018L64.2567 19.1062ZM64.9204 20.9468C65.1553 21.534 65.3781 22.1085 65.5887 22.6702L69.334 21.2658C69.1127 20.6755 68.8794 20.074 68.6343 19.4612L64.9204 20.9468ZM65.6152 22.7372C65.8466 23.2926 66.0238 23.748 66.1514 24.1096L69.9234 22.7784C69.763 22.324 69.5561 21.7954 69.3075 21.1988L65.6152 22.7372ZM68.0374 25.444H68.1814V21.444H68.0374V25.444ZM70.0409 24.1804C71.011 21.7309 71.909 19.316 72.7349 16.9355L68.9559 15.6245C68.1497 17.948 67.2718 20.3091 66.3219 22.7076L70.0409 24.1804ZM72.7289 16.9527C73.5849 14.5557 74.3324 12.1914 74.9704 9.85995L71.1123 8.80405C70.5024 11.0326 69.7858 13.3003 68.9619 15.6073L72.7289 16.9527ZM74.0896 11.0353C74.039 11.0664 74.0144 11.0687 74.0395 11.0628C74.0667 11.0564 74.1377 11.044 74.2654 11.044V7.044C73.525 7.044 72.7176 7.18288 71.9932 7.62868L74.0896 11.0353ZM81.4043 19.376L81.1278 17.3952L79.0149 17.6902L79.4455 19.7797L81.4043 19.376ZM92.2763 22.508L93.2841 20.7804L92.0986 20.0889L91.027 20.9463L92.2763 22.508ZM92.6723 24.848L91.2581 23.4338L91.2299 23.4621L91.2027 23.4914L92.6723 24.848ZM91.4483 25.676L90.6207 23.8553L90.6045 23.8626L90.5885 23.8703L91.4483 25.676ZM89.6483 26.252L89.2431 24.2935L89.2362 24.2949L89.2293 24.2964L89.6483 26.252ZM80.8283 24.2L79.4583 25.657L79.4637 25.6621L79.4691 25.6671L80.8283 24.2ZM78.9923 13.94L77.1214 13.2332L77.117 13.2448L77.1128 13.2565L78.9923 13.94ZM80.6483 11.204L79.2111 9.81316L79.1994 9.82532L79.1878 9.83768L80.6483 11.204ZM83.2043 9.512L83.9314 11.3752L83.951 11.3675L83.9704 11.3595L83.2043 9.512ZM89.3963 9.44L88.662 11.3003L88.662 11.3003L89.3963 9.44ZM91.7363 10.988L90.2967 12.3763L90.3219 12.4024L90.3481 12.4277L91.7363 10.988ZM93.2843 13.328L91.424 14.0623L91.4359 14.0923L91.4486 14.1218L93.2843 13.328ZM93.5003 17.432L94.8383 18.9186L94.8774 18.8834L94.9146 18.8462L93.5003 17.432ZM92.4923 17.828L92.2715 15.8402L92.2436 15.8433L92.2158 15.8472L92.4923 17.828ZM82.7363 12.788L84.1846 14.1673L84.1927 14.1588L84.2007 14.1502L82.7363 12.788ZM81.2243 17.144L79.225 17.0934L79.1654 19.4475L81.4981 19.1252L81.2243 17.144ZM91.1243 15.776L91.3981 17.7572L93.2889 17.4959L93.1161 15.5949L91.1243 15.776ZM89.7203 12.536L88.246 13.8874L88.2656 13.9088L88.2858 13.9296L89.7203 12.536ZM79.4455 19.7797C79.843 21.7082 80.7252 23.3606 82.2265 24.5041C83.7088 25.633 85.5669 26.092 87.5963 26.092V22.092C86.1458 22.092 85.2319 21.765 84.6502 21.3219C84.0875 20.8934 83.6137 20.1878 83.3632 18.9723L79.4455 19.7797ZM87.5963 26.092C88.8287 26.092 90.0044 25.886 91.0938 25.4374L89.5708 21.7386C89.0283 21.962 88.38 22.092 87.5963 22.092V26.092ZM91.0938 25.4374C92.0159 25.0577 92.8486 24.6115 93.5257 24.0697L91.027 20.9463C90.7441 21.1725 90.2808 21.4463 89.5708 21.7386L91.0938 25.4374ZM91.2686 24.2356C91.3437 24.2794 91.2967 24.2703 91.2334 24.17C91.2022 24.1207 91.1766 24.0637 91.16 24.0041C91.1436 23.9454 91.1403 23.9001 91.1403 23.876H95.1403C95.1403 22.4644 94.359 21.4075 93.2841 20.7804L91.2686 24.2356ZM91.1403 23.876C91.1403 23.7228 91.1784 23.5926 91.2213 23.5034C91.2602 23.4226 91.2899 23.4021 91.2581 23.4338L94.0866 26.2622C94.6516 25.6972 95.1403 24.8931 95.1403 23.876H91.1403ZM91.2027 23.4914C91.1488 23.5498 90.9893 23.6877 90.6207 23.8553L92.2759 27.4967C92.9634 27.1843 93.6199 26.7702 94.142 26.2046L91.2027 23.4914ZM90.5885 23.8703C90.2624 24.0255 89.8225 24.1736 89.2431 24.2935L90.0536 28.2105C90.8662 28.0424 91.6263 27.8065 92.3082 27.4817L90.5885 23.8703ZM89.2293 24.2964C88.714 24.4068 88.1243 24.468 87.4523 24.468V28.468C88.3644 28.468 89.2387 28.3852 90.0674 28.2076L89.2293 24.2964ZM87.4523 24.468C85.0401 24.468 83.3631 23.8219 82.1876 22.7329L79.4691 25.6671C81.5576 27.6021 84.2965 28.468 87.4523 28.468V24.468ZM82.1984 22.743C81.1084 21.7181 80.4163 20.1108 80.4163 17.576H76.4163C76.4163 20.8492 77.3323 23.6579 79.4583 25.657L82.1984 22.743ZM80.4163 17.576C80.4163 16.392 80.5828 15.4186 80.8719 14.6235L77.1128 13.2565C76.6339 14.5734 76.4163 16.024 76.4163 17.576H80.4163ZM80.8633 14.6468C81.1911 13.7789 81.6137 13.0996 82.1089 12.5703L79.1878 9.83768C78.291 10.7964 77.6095 11.9411 77.1214 13.2332L80.8633 14.6468ZM82.0855 12.5948C82.6014 12.0618 83.2098 11.6568 83.9314 11.3752L82.4773 7.64884C81.2309 8.13522 80.1353 8.85823 79.2111 9.81316L82.0855 12.5948ZM83.9704 11.3595C84.6923 11.0601 85.4976 10.9 86.4083 10.9V6.9C85.0151 6.9 83.6843 7.14787 82.4383 7.66451L83.9704 11.3595ZM86.4083 10.9C87.2625 10.9 88.0065 11.0415 88.662 11.3003L90.1307 7.57969C88.9622 7.11845 87.7142 6.9 86.4083 6.9V10.9ZM88.662 11.3003C89.3215 11.5606 89.8573 11.9206 90.2967 12.3763L93.176 9.59973C92.3194 8.7114 91.2952 8.03936 90.1307 7.57969L88.662 11.3003ZM90.3481 12.4277C90.8037 12.8671 91.1637 13.4028 91.424 14.0623L95.1447 12.5937C94.685 11.4292 94.0129 10.4049 93.1246 9.54831L90.3481 12.4277ZM91.4486 14.1218C91.7123 14.7316 91.8603 15.4412 91.8603 16.28H95.8603C95.8603 14.9588 95.6244 13.7004 95.1201 12.5342L91.4486 14.1218ZM91.8603 16.28C91.8603 16.4011 91.8456 16.418 91.8614 16.3675C91.88 16.3079 91.9388 16.1651 92.0861 16.0178L94.9146 18.8462C95.6928 18.0679 95.8603 17.0515 95.8603 16.28H91.8603ZM92.1624 15.9454C92.2403 15.8753 92.3082 15.8428 92.337 15.8315C92.3622 15.8216 92.3469 15.8319 92.2715 15.8402L92.7132 19.8158C93.4192 19.7373 94.1961 19.4966 94.8383 18.9186L92.1624 15.9454ZM92.2158 15.8472L81.1278 17.3952L81.6809 21.3568L92.7689 19.8088L92.2158 15.8472ZM86.3723 9.24C84.3771 9.24 82.6266 9.96962 81.272 11.4258L84.2007 14.1502C84.7661 13.5424 85.4396 13.24 86.3723 13.24V9.24ZM81.2881 11.4087C79.8785 12.8887 79.2809 14.883 79.225 17.0934L83.2237 17.1946C83.2637 15.613 83.6742 14.7033 84.1846 14.1673L81.2881 11.4087ZM81.4981 19.1252L91.3981 17.7572L90.8506 13.7948L80.9506 15.1628L81.4981 19.1252ZM93.1161 15.5949C92.9604 13.8824 92.3318 12.3539 91.1549 11.1424L88.2858 13.9296C88.7409 14.3981 89.0482 15.0296 89.1326 15.9571L93.1161 15.5949ZM91.1947 11.1846C89.9396 9.81545 88.2349 9.24 86.3723 9.24V13.24C87.3898 13.24 87.917 13.5285 88.246 13.8874L91.1947 11.1846ZM108.275 25.172L107.059 23.5842L107.059 23.5842L108.275 25.172ZM100.859 26.216L101.287 24.2622L101.257 24.2558L101.228 24.2503L100.859 26.216ZM98.8793 25.64L97.9848 27.4289L98.0327 27.4528L98.0818 27.4741L98.8793 25.64ZM97.6193 24.776L96.1007 26.0776L96.1507 26.1359L96.205 26.1902L97.6193 24.776ZM97.4033 22.94L95.7159 21.8662L95.6797 21.9231L95.6475 21.9823L97.4033 22.94ZM98.1233 22.256L99.3137 20.6489L98.2269 19.8439L97.0751 20.5527L98.1233 22.256ZM100.391 23.552L99.579 25.3796L99.6004 25.3891L99.622 25.3982L100.391 23.552ZM104.603 18.908L104.091 20.8412L104.108 20.8457L104.125 20.8499L104.603 18.908ZM101.615 18.116L102.128 16.1828L102.123 16.1814L101.615 18.116ZM98.4113 16.46L96.927 17.8006L96.938 17.8127L96.9491 17.8246L98.4113 16.46ZM97.7633 11.816L95.9451 10.9827L95.9305 11.0145L95.9171 11.0468L97.7633 11.816ZM100.895 9.296L101.492 11.205L101.51 11.1993L101.528 11.1934L100.895 9.296ZM107.735 9.656L106.858 11.4531L106.875 11.4614L106.892 11.4694L107.735 9.656ZM109.031 12.176L107.393 11.0291L107.352 11.0867L107.316 11.147L109.031 12.176ZM108.419 12.716L107.31 14.3801L108.235 14.9967L109.247 14.5367L108.419 12.716ZM101.183 11.888L100.118 10.1955L100.103 10.2047L100.089 10.2141L101.183 11.888ZM102.587 15.884L103.066 13.9421L103.049 13.938L103.033 13.9343L102.587 15.884ZM105.071 16.496L105.556 14.5557L105.55 14.5541L105.071 16.496ZM108.743 18.332L107.329 19.7462L107.34 19.7568L107.35 19.7672L108.743 18.332ZM107.967 21.572C107.967 22.5439 107.649 23.1328 107.059 23.5842L109.491 26.7598C111.158 25.4832 111.967 23.6721 111.967 21.572H107.967ZM107.059 23.5842C106.417 24.0762 105.286 24.468 103.379 24.468V28.468C105.744 28.468 107.878 27.9958 109.491 26.7598L107.059 23.5842ZM103.379 24.468C102.589 24.468 101.894 24.3951 101.287 24.2622L100.432 28.1698C101.36 28.3729 102.346 28.468 103.379 28.468V24.468ZM101.228 24.2503C100.566 24.1262 100.057 23.9714 99.6767 23.8059L98.0818 27.4741C98.8051 27.7886 99.6164 28.0178 100.491 28.1817L101.228 24.2503ZM99.7737 23.8511C99.3772 23.6529 99.1519 23.4802 99.0335 23.3618L96.205 26.1902C96.7106 26.6958 97.3253 27.0991 97.9848 27.4289L99.7737 23.8511ZM99.1378 23.4744C99.099 23.4292 99.1109 23.4313 99.1335 23.4842C99.1588 23.543 99.1873 23.6421 99.1873 23.768H95.1873C95.1873 24.7153 95.602 25.4957 96.1007 26.0776L99.1378 23.4744ZM99.1873 23.768C99.1873 23.7927 99.1839 23.8214 99.1765 23.8498C99.1692 23.8779 99.1609 23.8944 99.159 23.8977L95.6475 21.9823C95.3506 22.5266 95.1873 23.1304 95.1873 23.768H99.1873ZM99.0906 24.0138C99.0821 24.027 99.0782 24.0292 99.0867 24.021C99.0961 24.0122 99.1213 23.9902 99.1714 23.9593L97.0751 20.5527C96.5489 20.8765 96.0721 21.3066 95.7159 21.8662L99.0906 24.0138ZM96.9328 23.8631C97.7165 24.4436 98.6035 24.9461 99.579 25.3796L101.204 21.7244C100.451 21.3899 99.826 21.0284 99.3137 20.6489L96.9328 23.8631ZM99.622 25.3982C100.769 25.8762 102.022 26.092 103.343 26.092V22.092C102.457 22.092 101.741 21.9478 101.16 21.7058L99.622 25.3982ZM103.343 26.092C104.753 26.092 106.161 25.8662 107.268 25.1212C108.516 24.2814 109.087 22.9865 109.087 21.572H105.087C105.087 21.7435 105.056 21.7966 105.061 21.7869C105.07 21.7686 105.079 21.7729 105.034 21.8028C104.893 21.8978 104.43 22.092 103.343 22.092V26.092ZM109.087 21.572C109.087 20.451 108.733 19.3781 107.929 18.5161C107.163 17.6946 106.14 17.2269 105.082 16.9661L104.125 20.8499C104.722 20.9971 104.941 21.1774 105.003 21.2439C105.031 21.273 105.044 21.2961 105.054 21.3251C105.067 21.3581 105.087 21.4329 105.087 21.572H109.087ZM105.116 16.9748L102.128 16.1828L101.103 20.0492L104.091 20.8412L105.116 16.9748ZM102.123 16.1814C100.843 15.8458 100.184 15.4281 99.8734 15.0954L96.9491 17.8246C97.9826 18.9319 99.4596 19.6182 101.108 20.0506L102.123 16.1814ZM99.8955 15.1194C99.6048 14.7976 99.4033 14.3516 99.4033 13.616H95.4033C95.4033 15.1844 95.8737 16.6344 96.927 17.8006L99.8955 15.1194ZM99.4033 13.616C99.4033 13.2561 99.471 12.9175 99.6094 12.5852L95.9171 11.0468C95.5755 11.8665 95.4033 12.7279 95.4033 13.616H99.4033ZM99.5814 12.6493C99.7088 12.3713 99.9072 12.106 100.218 11.8519L97.6848 8.75608C96.9393 9.36603 96.3457 10.1087 95.9451 10.9827L99.5814 12.6493ZM100.218 11.8519C100.515 11.6083 100.925 11.3821 101.492 11.205L100.299 7.38704C99.3294 7.68994 98.4431 8.13566 97.6848 8.75608L100.218 11.8519ZM101.528 11.1934C102.07 11.0126 102.772 10.9 103.667 10.9V6.9C102.451 6.9 101.305 7.05139 100.263 7.39863L101.528 11.1934ZM103.667 10.9C105.173 10.9 106.196 11.1298 106.858 11.4531L108.613 7.85886C107.211 7.17416 105.522 6.9 103.667 6.9V10.9ZM106.892 11.4694C107.074 11.5543 107.205 11.6294 107.294 11.6899C107.385 11.7508 107.419 11.7867 107.421 11.789C107.421 11.7894 107.383 11.7482 107.346 11.6612C107.307 11.5691 107.283 11.4597 107.283 11.348H111.283C111.283 9.45102 109.754 8.38939 108.579 7.84256L106.892 11.4694ZM107.283 11.348C107.283 11.3227 107.287 11.2722 107.307 11.2067C107.327 11.14 107.358 11.0789 107.393 11.0291L110.67 13.3229C111.089 12.7244 111.283 12.0422 111.283 11.348H107.283ZM107.316 11.147C107.347 11.0961 107.391 11.0411 107.447 10.9913C107.503 10.942 107.555 10.9118 107.592 10.8953L109.247 14.5367C109.866 14.2553 110.386 13.8059 110.746 13.205L107.316 11.147ZM109.529 11.0519C108.948 10.6646 108.207 10.2963 107.364 9.93884L105.802 13.6212C106.544 13.9357 107.027 14.1914 107.31 14.3801L109.529 11.0519ZM107.364 9.93884C106.271 9.47494 105.057 9.276 103.775 9.276V13.276C104.653 13.276 105.312 13.4131 105.802 13.6212L107.364 9.93884ZM103.775 9.276C102.466 9.276 101.19 9.52021 100.118 10.1955L102.249 13.5805C102.472 13.4398 102.925 13.276 103.775 13.276V9.276ZM100.089 10.2141C98.9012 10.9905 98.2473 12.1953 98.2473 13.616H102.247C102.247 13.5701 102.252 13.55 102.252 13.5495C102.252 13.5491 102.251 13.5523 102.249 13.5581C102.247 13.564 102.244 13.571 102.24 13.5786C102.236 13.5861 102.232 13.5925 102.228 13.5975C102.224 13.6023 102.222 13.6045 102.223 13.6039C102.224 13.6031 102.238 13.5876 102.278 13.5619L100.089 10.2141ZM98.2473 13.616C98.2473 14.6488 98.6024 15.6138 99.3282 16.3879L102.246 13.6521C102.238 13.6438 102.238 13.6415 102.24 13.6456C102.243 13.6499 102.246 13.6562 102.249 13.663C102.252 13.6698 102.251 13.6718 102.251 13.6667C102.25 13.6612 102.247 13.6451 102.247 13.616H98.2473ZM99.3282 16.3879C100.084 17.194 101.138 17.6042 102.142 17.8337L103.033 13.9343C102.718 13.8623 102.506 13.785 102.373 13.721C102.239 13.6569 102.219 13.6229 102.246 13.6521L99.3282 16.3879ZM102.109 17.8259L104.593 18.4379L105.55 14.5541L103.066 13.9421L102.109 17.8259ZM104.586 18.4363C106.018 18.7942 106.861 19.278 107.329 19.7462L110.157 16.9178C108.994 15.754 107.389 15.0138 105.556 14.5557L104.586 18.4363ZM107.35 19.7672C107.701 20.1076 107.967 20.6268 107.967 21.572H111.967C111.967 19.7812 111.417 18.1404 110.136 16.8968L107.35 19.7672Z" fill="black"/>
</svg>
